<svg xmlns="http://www.w3.org/2000/svg" width="1318.4" height="1179.26" viewBox="14824.995 8990.62 65.92 58.963"><style>
	.line {
		stroke: #333;
		stroke-width: .09;
		fill: none;
		stroke-linejoin: round;
		stroke-linecap: round;
	}
	.station {
		stroke: none;
	}
	.transit {
		stroke: #555;
		stroke-width: .05;
		fill: #fff;
	}
</style><g><path class="line 0" style="stroke: #DC143C;" d="M14839.598 8991.22L14842.669 8999.65"></path><path class="line 0" style="stroke: #DC143C;" d="M14842.74 8999.652L14842.648 9001.988"></path><path class="line 1" style="stroke: #000080;" d="M14842.597 8999.647L14842.506 9001.982"></path><path class="line 0" style="stroke: #DC143C;" d="M14842.577 9001.985L14842.757 9006.602"></path><path class="line 0" style="stroke: #DC143C;" d="M14842.814 9006.56L14845.194 9009.867"></path><path class="line 28" style="stroke: #008080;" d="M14842.699 9006.644L14845.078 9009.95"></path><path class="line 0" style="stroke: #DC143C;" d="M14845.235 9009.806L14849.819 9014.219"></path><path class="line 28" style="stroke: #008080;" d="M14845.136 9009.908L14849.72 9014.322"></path><path class="line 3" style="stroke: #FFD700;" d="M14845.037 9010.011L14849.621 9014.425"></path><path class="line 0" style="stroke: #DC143C;" d="M14849.902 9014.208L14851.253 9016.374"></path><path class="line 28" style="stroke: #008080;" d="M14849.781 9014.284L14851.132 9016.449"></path><path class="line 3" style="stroke: #FFD700;" d="M14849.659 9014.359L14851.01 9016.525"></path><path class="line 5" style="stroke: #FFA500;" d="M14849.538 9014.435L14850.889 9016.601"></path><path class="line 12" style="stroke: #F0E68C;" d="M14851.331 9016.732L14850.604 9017.505"></path><path class="line 15" style="stroke: #0000FF;" d="M14851.227 9016.634L14850.5 9017.407"></path><path class="line 2" style="stroke: #32CD32;" d="M14851.123 9016.536L14850.396 9017.309"></path><path class="line 28" style="stroke: #008080;" d="M14851.019 9016.438L14850.292 9017.211"></path><path class="line 4" style="stroke: #FF00FF;" d="M14850.915 9016.34L14850.188 9017.113"></path><path class="line 5" style="stroke: #FFA500;" d="M14850.811 9016.242L14850.084 9017.016"></path><path class="line 12" style="stroke: #F0E68C;" d="M14850.701 9017.27L14850.607 9020.851"></path><path class="line 15" style="stroke: #0000FF;" d="M14850.558 9017.266L14850.464 9020.847"></path><path class="line 2" style="stroke: #32CD32;" d="M14850.415 9017.262L14850.322 9020.844"></path><path class="line 28" style="stroke: #008080;" d="M14850.273 9017.258L14850.179 9020.84"></path><path class="line 4" style="stroke: #FF00FF;" d="M14850.13 9017.255L14850.036 9020.836"></path><path class="line 5" style="stroke: #FFA500;" d="M14849.987 9017.251L14849.893 9020.832"></path><path class="line 15" style="stroke: #0000FF;" d="M14850.585 9020.966L14849.3 9024.433"></path><path class="line 18" style="stroke: #FA8072;" d="M14850.451 9020.916L14849.166 9024.383"></path><path class="line 2" style="stroke: #32CD32;" d="M14850.317 9020.866L14849.033 9024.333"></path><path class="line 26" style="stroke: #FF4500;" d="M14850.183 9020.817L14848.899 9024.284"></path><path class="line 28" style="stroke: #008080;" d="M14850.049 9020.767L14848.765 9024.234"></path><path class="line 5" style="stroke: #FFA500;" d="M14849.915 9020.718L14848.631 9024.184"></path><path class="line 15" style="stroke: #0000FF;" d="M14849.021 9024.354L14847.671 9025.991"></path><path class="line 5" style="stroke: #FFA500;" d="M14848.91 9024.263L14847.561 9025.9"></path><path class="line 24" style="stroke: #663399;" d="M14847.584 9025.882L14835.332 9032.005"></path><path class="line 5" style="stroke: #FFA500;" d="M14847.648 9026.009L14835.396 9032.133"></path><path class="line 23" style="stroke: #FF1493;" d="M14835.524 9032.211L14834.435 9033.44"></path><path class="line 24" style="stroke: #663399;" d="M14835.418 9032.117L14834.328 9033.345"></path><path class="line 27" style="stroke: #C0C0C0;" d="M14835.311 9032.022L14834.221 9033.25"></path><path class="line 5" style="stroke: #FFA500;" d="M14835.204 9031.927L14834.114 9033.155"></path><path class="line 2" style="stroke: #32CD32;" d="M14866.06 9001.124L14858.336 9006.139"></path><path class="line 15" style="stroke: #0000FF;" d="M14858.396 9006.178L14854.596 9011.939"></path><path class="line 2" style="stroke: #32CD32;" d="M14858.277 9006.1L14854.477 9011.86"></path><path class="line 1" style="stroke: #000080;" d="M14854.649 9011.988L14852.293 9014.994"></path><path class="line 15" style="stroke: #0000FF;" d="M14854.537 9011.9L14852.18 9014.905"></path><path class="line 2" style="stroke: #32CD32;" d="M14854.424 9011.811L14852.068 9014.817"></path><path class="line 1" style="stroke: #000080;" d="M14852.356 9015.028L14851.246 9016.61"></path><path class="line 15" style="stroke: #0000FF;" d="M14852.239 9014.946L14851.129 9016.528"></path><path class="line 2" style="stroke: #32CD32;" d="M14852.122 9014.864L14851.012 9016.446"></path><path class="line 4" style="stroke: #FF00FF;" d="M14852.005 9014.782L14850.896 9016.364"></path><path class="line 18" style="stroke: #FA8072;" d="M14849.177 9024.345L14848.805 9026.529"></path><path class="line 2" style="stroke: #32CD32;" d="M14849.036 9024.321L14848.664 9026.505"></path><path class="line 26" style="stroke: #FF4500;" d="M14848.895 9024.297L14848.523 9026.481"></path><path class="line 28" style="stroke: #008080;" d="M14848.754 9024.273L14848.382 9026.457"></path><path class="line 18" style="stroke: #FA8072;" d="M14848.795 9026.565L14848.062 9028.61"></path><path class="line 2" style="stroke: #32CD32;" d="M14848.661 9026.517L14847.928 9028.562"></path><path class="line 26" style="stroke: #FF4500;" d="M14848.526 9026.469L14847.793 9028.514"></path><path class="line 28" style="stroke: #008080;" d="M14848.392 9026.421L14847.659 9028.466"></path><path class="line 2" style="stroke: #32CD32;" d="M14847.928 9028.515L14851.016 9037.526"></path><path class="line 28" style="stroke: #008080;" d="M14847.793 9028.561L14850.881 9037.573"></path><path class="line 2" style="stroke: #32CD32;" d="M14850.948 9037.549L14852.458 9043.843"></path><path class="line 18" style="stroke: #FA8072;" d="M14843.591 9037.483L14847.925 9028.569"></path><path class="line 26" style="stroke: #FF4500;" d="M14843.463 9037.421L14847.796 9028.507"></path><path class="line 5" style="stroke: #FFA500;" d="M14849.72 9014.322L14836.33 9005.981"></path><path class="line 10" style="stroke: #5F9EA0;" d="M14835.724 9018.948L14842.294 9023.194"></path><path class="line 13" style="stroke: #EE82EE;" d="M14835.646 9019.068L14842.217 9023.314"></path><path class="line 10" style="stroke: #5F9EA0;" d="M14842.152 9022.912L14850.147 9020.5"></path><path class="line 13" style="stroke: #EE82EE;" d="M14842.193 9023.049L14850.188 9020.636"></path><path class="line 21" style="stroke: #2F4F4F;" d="M14842.235 9023.186L14850.23 9020.773"></path><path class="line 23" style="stroke: #FF1493;" d="M14842.276 9023.322L14850.271 9020.91"></path><path class="line 27" style="stroke: #C0C0C0;" d="M14842.317 9023.459L14850.312 9021.047"></path><path class="line 9" style="stroke: #800000;" d="M14842.358 9023.596L14850.353 9021.184"></path><path class="line 10" style="stroke: #5F9EA0;" d="M14850.378 9020.508L14855.14 9022.338"></path><path class="line 13" style="stroke: #EE82EE;" d="M14850.327 9020.642L14855.089 9022.471"></path><path class="line 20" style="stroke: #008000;" d="M14850.276 9020.775L14855.037 9022.605"></path><path class="line 27" style="stroke: #C0C0C0;" d="M14850.225 9020.908L14854.986 9022.738"></path><path class="line 7" style="stroke: #3CB371;" d="M14850.173 9021.042L14854.935 9022.871"></path><path class="line 9" style="stroke: #800000;" d="M14850.122 9021.175L14854.884 9023.005"></path><path class="line 13" style="stroke: #EE82EE;" d="M14855.079 9022.393L14856.61 9022.762"></path><path class="line 20" style="stroke: #008000;" d="M14855.045 9022.532L14856.576 9022.901"></path><path class="line 27" style="stroke: #C0C0C0;" d="M14855.012 9022.671L14856.543 9023.04"></path><path class="line 7" style="stroke: #3CB371;" d="M14854.978 9022.81L14856.509 9023.179"></path><path class="line 9" style="stroke: #800000;" d="M14854.945 9022.949L14856.476 9023.318"></path><path class="line 19" style="stroke: #7FFF00;" d="M14856.571 9022.974L14878.314 9032.358"></path><path class="line 20" style="stroke: #008000;" d="M14856.515 9023.105L14878.258 9032.489"></path><path class="line 13" style="stroke: #EE82EE;" d="M14856.424 9022.703L14860.337 9021.327"></path><path class="line 14" style="stroke: #000000;" d="M14856.472 9022.838L14860.384 9021.462"></path><path class="line 16" style="stroke: #808000;" d="M14856.519 9022.972L14860.432 9021.597"></path><path class="line 27" style="stroke: #C0C0C0;" d="M14856.567 9023.107L14860.479 9021.732"></path><path class="line 7" style="stroke: #3CB371;" d="M14856.614 9023.242L14860.526 9021.866"></path><path class="line 9" style="stroke: #800000;" d="M14856.661 9023.377L14860.574 9022.001"></path><path class="line 14" style="stroke: #000000;" d="M14860.459 9021.593L14871.037 9022.107"></path><path class="line 27" style="stroke: #C0C0C0;" d="M14860.452 9021.735L14871.031 9022.249"></path><path class="line 6" style="stroke: #6495ED;" d="M14871.034 9022.178L14890.315 9011.946"></path><path class="line 13" style="stroke: #EE82EE;" d="M14860.619 9021.803L14861.913 9020.282"></path><path class="line 16" style="stroke: #808000;" d="M14860.51 9021.71L14861.804 9020.189"></path><path class="line 7" style="stroke: #3CB371;" d="M14860.401 9021.618L14861.695 9020.097"></path><path class="line 9" style="stroke: #800000;" d="M14860.292 9021.525L14861.586 9020.004"></path><path class="line 13" style="stroke: #EE82EE;" d="M14861.816 9020.115L14859.307 9014.121"></path><path class="line 16" style="stroke: #808000;" d="M14861.684 9020.17L14859.175 9014.177"></path><path class="line 7" style="stroke: #3CB371;" d="M14861.816 9020.169L14864.06 9014.391"></path><path class="line 9" style="stroke: #800000;" d="M14861.683 9020.117L14863.927 9014.339"></path><path class="line 23" style="stroke: #FF1493;" d="M14842.312 9023.298L14835.42 9032.113"></path><path class="line 27" style="stroke: #C0C0C0;" d="M14842.199 9023.21L14835.308 9032.025"></path><path class="line 23" style="stroke: #FF1493;" d="M14834.245 9033.232L14825.651 9037.075"></path><path class="line 24" style="stroke: #663399;" d="M14834.303 9033.363L14825.709 9037.205"></path><path class="line 1" style="stroke: #000080;" d="M14850.335 9017.046L14852.391 9016.958"></path><path class="line 11" style="stroke: #00FFFF;" d="M14850.341 9017.189L14852.397 9017.1"></path><path class="line 17" style="stroke: #7FFFD4;" d="M14850.347 9017.332L14852.403 9017.243"></path><path class="line 6" style="stroke: #6495ED;" d="M14850.353 9017.474L14852.409 9017.386"></path><path class="line 0" style="stroke: #DC143C;" d="M14852.692 9016.966L14856.835 9022.834"></path><path class="line 1" style="stroke: #000080;" d="M14852.575 9017.048L14856.718 9022.916"></path><path class="line 11" style="stroke: #00FFFF;" d="M14852.458 9017.13L14856.601 9022.999"></path><path class="line 17" style="stroke: #7FFFD4;" d="M14852.341 9017.213L14856.484 9023.081"></path><path class="line 3" style="stroke: #FFD700;" d="M14852.225 9017.295L14856.368 9023.163"></path><path class="line 6" style="stroke: #6495ED;" d="M14852.108 9017.378L14856.251 9023.246"></path><path class="line 0" style="stroke: #DC143C;" d="M14856.862 9023.201L14856.262 9024.389"></path><path class="line 1" style="stroke: #000080;" d="M14856.734 9023.136L14856.134 9024.325"></path><path class="line 11" style="stroke: #00FFFF;" d="M14856.607 9023.072L14856.007 9024.26"></path><path class="line 17" style="stroke: #7FFFD4;" d="M14856.479 9023.008L14855.879 9024.196"></path><path class="line 3" style="stroke: #FFD700;" d="M14856.352 9022.943L14855.752 9024.131"></path><path class="line 6" style="stroke: #6495ED;" d="M14856.224 9022.879L14855.624 9024.067"></path><path class="line 1" style="stroke: #000080;" d="M14855.813 9024.058L14853.78 9025.606"></path><path class="line 10" style="stroke: #5F9EA0;" d="M14855.9 9024.171L14853.867 9025.72"></path><path class="line 11" style="stroke: #00FFFF;" d="M14855.986 9024.285L14853.953 9025.833"></path><path class="line 6" style="stroke: #6495ED;" d="M14856.073 9024.399L14854.04 9025.947"></path><path class="line 1" style="stroke: #000080;" d="M14854.335 9025.834L14854.096 9027.595"></path><path class="line 10" style="stroke: #5F9EA0;" d="M14854.193 9025.815L14853.954 9027.576"></path><path class="line 11" style="stroke: #00FFFF;" d="M14854.052 9025.796L14853.813 9027.557"></path><path class="line 22" style="stroke: #00FA9A;" d="M14853.91 9025.777L14853.671 9027.538"></path><path class="line 29" style="stroke: #BDB76B;" d="M14853.769 9025.757L14853.53 9027.518"></path><path class="line 6" style="stroke: #6495ED;" d="M14853.627 9025.738L14853.388 9027.499"></path><path class="line 8" style="stroke: #9400D3;" d="M14853.485 9025.719L14853.247 9027.48"></path><path class="line 1" style="stroke: #000080;" d="M14853.743 9027.188L14848.665 9026.143"></path><path class="line 10" style="stroke: #5F9EA0;" d="M14853.714 9027.328L14848.637 9026.283"></path><path class="line 22" style="stroke: #00FA9A;" d="M14853.686 9027.468L14848.608 9026.423"></path><path class="line 29" style="stroke: #BDB76B;" d="M14853.657 9027.608L14848.579 9026.563"></path><path class="line 6" style="stroke: #6495ED;" d="M14853.628 9027.748L14848.55 9026.703"></path><path class="line 8" style="stroke: #9400D3;" d="M14853.599 9027.887L14848.522 9026.843"></path><path class="line 1" style="stroke: #000080;" d="M14848.733 9026.244L14847.756 9025.696"></path><path class="line 10" style="stroke: #5F9EA0;" d="M14848.663 9026.368L14847.686 9025.821"></path><path class="line 22" style="stroke: #00FA9A;" d="M14848.593 9026.493L14847.616 9025.945"></path><path class="line 29" style="stroke: #BDB76B;" d="M14848.524 9026.618L14847.546 9026.07"></path><path class="line 6" style="stroke: #6495ED;" d="M14848.454 9026.742L14847.476 9026.195"></path><path class="line 1" style="stroke: #000080;" d="M14847.744 9025.69L14842.383 9022.999"></path><path class="line 17" style="stroke: #7FFFD4;" d="M14847.68 9025.818L14842.319 9023.126"></path><path class="line 22" style="stroke: #00FA9A;" d="M14847.616 9025.945L14842.255 9023.254"></path><path class="line 29" style="stroke: #BDB76B;" d="M14847.552 9026.073L14842.191 9023.382"></path><path class="line 6" style="stroke: #6495ED;" d="M14847.488 9026.201L14842.127 9023.509"></path><path class="line 1" style="stroke: #000080;" d="M14842.541 9023.266L14842.633 9021.062"></path><path class="line 17" style="stroke: #7FFFD4;" d="M14842.398 9023.26L14842.491 9021.056"></path><path class="line 22" style="stroke: #00FA9A;" d="M14842.255 9023.254L14842.348 9021.05"></path><path class="line 29" style="stroke: #BDB76B;" d="M14842.113 9023.248L14842.205 9021.044"></path><path class="line 6" style="stroke: #6495ED;" d="M14841.97 9023.242L14842.062 9021.038"></path><path class="line 1" style="stroke: #000080;" d="M14842.256 9020.857L14850.252 9017.067"></path><path class="line 17" style="stroke: #7FFFD4;" d="M14842.317 9020.986L14850.313 9017.196"></path><path class="line 25" style="stroke: #00FF00;" d="M14842.378 9021.115L14850.375 9017.325"></path><path class="line 6" style="stroke: #6495ED;" d="M14842.44 9021.244L14850.436 9017.454"></path><path class="line 22" style="stroke: #00FA9A;" d="M14853.964 9025.644L14858.164 9027.354"></path><path class="line 29" style="stroke: #BDB76B;" d="M14853.91 9025.777L14858.11 9027.487"></path><path class="line 8" style="stroke: #9400D3;" d="M14853.856 9025.909L14858.056 9027.619"></path><path class="line 0" style="stroke: #DC143C;" d="M14858.366 9027.238L14859.952 9028.873"></path><path class="line 17" style="stroke: #7FFFD4;" d="M14858.264 9027.337L14859.849 9028.972"></path><path class="line 22" style="stroke: #00FA9A;" d="M14858.161 9027.437L14859.747 9029.072"></path><path class="line 29" style="stroke: #BDB76B;" d="M14858.059 9027.536L14859.644 9029.171"></path><path class="line 3" style="stroke: #FFD700;" d="M14857.956 9027.636L14859.542 9029.271"></path><path class="line 8" style="stroke: #9400D3;" d="M14857.853 9027.735L14859.439 9029.37"></path><path class="line 17" style="stroke: #7FFFD4;" d="M14859.695 9029.121L14863.731 9030.214"></path><path class="line 0" style="stroke: #DC143C;" d="M14859.903 9028.925L14862.237 9031.382"></path><path class="line 22" style="stroke: #00FA9A;" d="M14859.799 9029.023L14862.133 9031.481"></path><path class="line 29" style="stroke: #BDB76B;" d="M14859.695 9029.121L14862.03 9031.579"></path><path class="line 3" style="stroke: #FFD700;" d="M14859.592 9029.22L14861.926 9031.677"></path><path class="line 8" style="stroke: #9400D3;" d="M14859.488 9029.318L14861.823 9031.776"></path><path class="line 0" style="stroke: #DC143C;" d="M14862.097 9031.604L14860.021 9037.182"></path><path class="line 29" style="stroke: #BDB76B;" d="M14861.963 9031.554L14859.887 9037.132"></path><path class="line 22" style="stroke: #00FA9A;" d="M14862.135 9031.483L14864.705 9034.302"></path><path class="line 3" style="stroke: #FFD700;" d="M14862.03 9031.579L14864.6 9034.399"></path><path class="line 8" style="stroke: #9400D3;" d="M14861.924 9031.675L14864.494 9034.495"></path><path class="line 22" style="stroke: #00FA9A;" d="M14864.663 9034.366L14869.496 9043.656"></path><path class="line 3" style="stroke: #FFD700;" d="M14864.536 9034.432L14869.369 9043.722"></path><path class="line 3" style="stroke: #FFD700;" d="M14869.433 9043.689L14869.016 9048.983"></path><path class="line 0" style="stroke: #DC143C;" d="M14858.229 9027.408L14856.062 9024.149"></path><path class="line 17" style="stroke: #7FFFD4;" d="M14858.11 9027.487L14855.943 9024.228"></path><path class="line 3" style="stroke: #FFD700;" d="M14857.991 9027.566L14855.824 9024.307"></path><path class="line 10" style="stroke: #5F9EA0;" d="M14855.943 9024.228L14855.012 9022.671"></path><path class="line 0" style="stroke: #DC143C;" d="M14852.432 9017.108L14851.104 9016.424"></path><path class="line 3" style="stroke: #FFD700;" d="M14852.367 9017.235L14851.038 9016.551"></path><path class="line 1" style="stroke: #000080;" d="M14854.537 9011.9L14842.577 9001.985"></path><circle class="station transit" data-id="900000193002" cx="14862.03" cy="9031.579" r="0.35" fill="#333"></circle><circle class="station transit" data-id="900000170004" cx="14863.993" cy="9014.365" r="0.185" fill="#333"></circle><circle class="station transit" data-id="900000191001" cx="14858.11" cy="9027.487" r="0.405" fill="#333"></circle><circle class="station" data-id="900000350160" cx="14866.06" cy="9001.124" r="0.1" fill="#32CD32"></circle><circle class="station transit" data-id="900000200008" cx="14842.669" cy="8999.65" r="0.185" fill="#333"></circle><circle class="station transit" data-id="900000142001" cx="14854.537" cy="9011.9" r="0.24" fill="#333"></circle><circle class="station" data-id="900000245027" cx="14852.458" cy="9043.843" r="0.1" fill="#32CD32"></circle><circle class="station transit" data-id="900000110011" cx="14851.071" cy="9016.487" r="0.405" fill="#333"></circle><circle class="station transit" data-id="900000135001" cx="14858.336" cy="9006.139" r="0.185" fill="#333"></circle><circle class="station transit" data-id="900000310004" cx="14878.286" cy="9032.424" r="0.185" fill="#333"></circle><circle class="station transit" data-id="900000100001" cx="14850.25" cy="9020.842" r="0.405" fill="#333"></circle><circle class="station transit" data-id="900000171002" cx="14860.455" cy="9021.664" r="0.405" fill="#333"></circle><circle class="station transit" data-id="900000092201" cx="14842.757" cy="9006.602" r="0.185" fill="#333"></circle><circle class="station transit" data-id="900000007102" cx="14850.344" cy="9017.26" r="0.405" fill="#333"></circle><circle class="station transit" data-id="900000186001" cx="14864.6" cy="9034.399" r="0.24" fill="#333"></circle><circle class="station" data-id="900000200000" cx="14836.33" cy="9005.981" r="0.1" fill="#FFA500"></circle><circle class="station transit" data-id="900000079221" cx="14853.671" cy="9027.538" r="0.46" fill="#333"></circle><circle class="station transit" data-id="900000200009" cx="14842.577" cy="9001.985" r="0.185" fill="#333"></circle><circle class="station transit" data-id="900000320045" cx="14871.034" cy="9022.178" r="0.185" fill="#333"></circle><circle class="station" data-id="900000260001" cx="14869.016" cy="9048.983" r="0.1" fill="#FFD700"></circle><circle class="station transit" data-id="900000074201" cx="14850.948" cy="9037.549" r="0.185" fill="#333"></circle><circle class="station transit" data-id="900000078102" cx="14853.91" cy="9025.777" r="0.46" fill="#333"></circle><circle class="station transit" data-id="900000052201" cx="14835.364" cy="9032.069" r="0.29500000000000004" fill="#333"></circle><circle class="station" data-id="900000200005" cx="14839.598" cy="8991.22" r="0.1" fill="#DC143C"></circle><circle class="station transit" data-id="900000120003" cx="14856.543" cy="9023.04" r="0.405" fill="#333"></circle><circle class="station transit" data-id="900000130002" cx="14852.18" cy="9014.905" r="0.29500000000000004" fill="#333"></circle><circle class="station transit" data-id="900000230999" cx="14825.68" cy="9037.14" r="0.185" fill="#333"></circle><circle class="station transit" data-id="900000058102" cx="14847.86" cy="9028.538" r="0.29500000000000004" fill="#333"></circle><circle class="station transit" data-id="900000054104" cx="14847.616" cy="9025.945" r="0.35" fill="#333"></circle><circle class="station transit" data-id="900000260005" cx="14859.954" cy="9037.157" r="0.185" fill="#333"></circle><circle class="station transit" data-id="900000192001" cx="14859.695" cy="9029.121" r="0.405" fill="#333"></circle><circle class="station transit" data-id="900000110001" cx="14852.4" cy="9017.172" r="0.405" fill="#333"></circle><circle class="station transit" data-id="900000085201" cx="14849.72" cy="9014.322" r="0.29500000000000004" fill="#333"></circle><circle class="station transit" data-id="900000029101" cx="14835.685" cy="9019.008" r="0.185" fill="#333"></circle><circle class="station" data-id="900000180003" cx="14863.731" cy="9030.214" r="0.1" fill="#7FFFD4"></circle><circle class="station transit" data-id="900000171003" cx="14861.75" cy="9020.143" r="0.29500000000000004" fill="#333"></circle><circle class="station" data-id="900000320001" cx="14890.315" cy="9011.946" r="0.1" fill="#6495ED"></circle><circle class="station transit" data-id="900000058101" cx="14848.593" cy="9026.493" r="0.405" fill="#333"></circle><circle class="station transit" data-id="900000220001" cx="14843.527" cy="9037.452" r="0.185" fill="#333"></circle><circle class="station transit" data-id="900000190001" cx="14855.943" cy="9024.228" r="0.405" fill="#333"></circle><circle class="station transit" data-id="900000094101" cx="14845.136" cy="9009.908" r="0.24" fill="#333"></circle><circle class="station transit" data-id="900000053301" cx="14834.274" cy="9033.297" r="0.29500000000000004" fill="#333"></circle><circle class="station transit" data-id="900000120004" cx="14855.012" cy="9022.671" r="0.405" fill="#333"></circle><circle class="station transit" data-id="900000151001" cx="14859.241" cy="9014.149" r="0.185" fill="#333"></circle><circle class="station transit" data-id="900000026207" cx="14842.348" cy="9021.05" r="0.35" fill="#333"></circle><circle class="station transit" data-id="900000024102" cx="14842.255" cy="9023.254" r="0.405" fill="#333"></circle><circle class="station transit" data-id="900000600003" cx="14848.966" cy="9024.309" r="0.405" fill="#333"></circle><circle class="station transit" data-id="900000261122" cx="14869.433" cy="9043.689" r="0.185" fill="#333"></circle></g></svg>